<svg viewBox = "0 0 511 518" width="511" height="518" xmlns="http://www.w3.org/2000/svg"><g transform="matrix(1 0 0 1 255.5 259)"  ><g style=""   ><g transform="matrix(1 0 0 1 187.34 87.5)" clip-path="url(#CLIPPATH_536)"  ><clipPath id="CLIPPATH_536" ><rect transform="matrix(1 0 0 1 0 0)" id="clip0_1532_847" x="-68.1555" y="-67.5" rx="67.5" ry="67.5" width="136.311" height="135" /></clipPath><rect style="stroke: none; stroke-width: 1; stroke-dasharray: none; stroke-linecap: butt; stroke-dashoffset: 0; stroke-linejoin: miter; stroke-miterlimit: 4; fill: rgb(97,214,232); fill-rule: nonzero; opacity: 1;"  x="-68.1555" y="-67.5" rx="67.5" ry="67.5" width="136.311" height="135" /></g><g transform="matrix(1 0 0 1 186.87 149.99)" clip-path="url(#CLIPPATH_537)"  ><clipPath id="CLIPPATH_537" ><rect transform="matrix(1 0 0 1 0.48 -62.49)" id="clip0_1532_847" x="-68.1555" y="-67.5" rx="67.5" ry="67.5" width="136.311" height="135" /></clipPath><path style="stroke: none; stroke-width: 1; stroke-dasharray: none; stroke-linecap: butt; stroke-dashoffset: 0; stroke-linejoin: miter; stroke-miterlimit: 4; fill: rgb(34,198,223); fill-rule: nonzero; opacity: 1;"  transform=" translate(-442.37, -408.99)" d="M 405.754 412.197 C 405.754 401.232 414.646 392.341 425.603 392.341 L 459.127 392.341 C 470.091 392.341 478.982 401.232 478.982 412.197 L 478.982 425.644 L 405.754 425.644 L 405.754 412.197 Z" stroke-linecap="round" /></g><g transform="matrix(1 0 0 1 186.87 143.33)" clip-path="url(#CLIPPATH_538)"  ><clipPath id="CLIPPATH_538" ><rect transform="matrix(1 0 0 1 0.47 -55.83)" id="clip0_1532_847" x="-68.1555" y="-67.5" rx="67.5" ry="67.5" width="136.311" height="135" /></clipPath><path style="stroke: none; stroke-width: 1; stroke-dasharray: none; stroke-linecap: butt; stroke-dashoffset: 0; stroke-linejoin: miter; stroke-miterlimit: 4; fill: rgb(241,252,253); fill-rule: nonzero; opacity: 1;"  transform=" translate(-442.37, -402.33)" d="M 456.592 394.649 C 456.009 388.823 450.766 389.761 450.766 389.761 C 450.766 389.761 445.852 390.249 442.369 390.249 C 438.888 390.249 433.977 389.761 433.977 389.761 C 433.977 389.761 428.734 388.823 428.151 394.649 C 427.263 403.49 430.919 414.948 430.919 414.948 C 430.919 414.948 438.229 410.87 442.369 406.849 C 446.514 410.87 453.824 414.948 453.824 414.948 C 453.824 414.948 457.477 403.49 456.592 394.649 Z" stroke-linecap="round" /></g><g transform="matrix(1 0 0 1 186.87 127.58)" clip-path="url(#CLIPPATH_539)"  ><clipPath id="CLIPPATH_539" ><rect transform="matrix(1 0 0 1 0.48 -40.08)" id="clip0_1532_847" x="-68.1555" y="-67.5" rx="67.5" ry="67.5" width="136.311" height="135" /></clipPath><path style="stroke: none; stroke-width: 1; stroke-dasharray: none; stroke-linecap: butt; stroke-dashoffset: 0; stroke-linejoin: miter; stroke-miterlimit: 4; fill: rgb(254,226,202); fill-rule: nonzero; opacity: 1;"  transform=" translate(-442.37, -386.58)" d="M 451.691 395.574 C 451.691 400.727 447.518 404.906 442.366 404.906 C 437.213 404.906 433.043 400.727 433.043 395.574 L 433.043 377.59 C 433.043 372.436 437.213 368.258 442.366 368.258 C 447.518 368.258 451.691 372.436 451.691 377.59 L 451.691 395.574 Z" stroke-linecap="round" /></g><g transform="matrix(1 0 0 1 149.13 92.74)" clip-path="url(#CLIPPATH_540)"  ><clipPath id="CLIPPATH_540" ><rect transform="matrix(1 0 0 1 38.21 -5.24)" id="clip0_1532_847" x="-68.1555" y="-67.5" rx="67.5" ry="67.5" width="136.311" height="135" /></clipPath><path style="stroke: none; stroke-width: 1; stroke-dasharray: none; stroke-linecap: butt; stroke-dashoffset: 0; stroke-linejoin: miter; stroke-miterlimit: 4; fill: rgb(254,226,202); fill-rule: nonzero; opacity: 1;"  transform=" translate(-404.63, -351.74)" d="M 414.913 349.768 C 416.325 357.131 412.858 363.99 407.178 365.072 C 401.495 366.168 395.755 361.072 394.344 353.695 C 392.937 346.338 396.406 339.479 402.079 338.397 C 407.766 337.315 413.51 342.404 414.913 349.768 Z" stroke-linecap="round" /></g><g transform="matrix(1 0 0 1 149.13 92.73)" clip-path="url(#CLIPPATH_541)"  ><clipPath id="CLIPPATH_541" ><rect transform="matrix(1 0 0 1 38.21 -5.23)" id="clip0_1532_847" x="-68.1555" y="-67.5" rx="67.5" ry="67.5" width="136.311" height="135" /></clipPath><path style="stroke: none; stroke-width: 1; stroke-dasharray: none; stroke-linecap: butt; stroke-dashoffset: 0; stroke-linejoin: miter; stroke-miterlimit: 4; fill: rgb(254,202,182); fill-rule: nonzero; opacity: 1;"  transform=" translate(-404.63, -351.73)" d="M 411.86 350.352 C 412.851 355.539 410.417 360.352 406.42 361.11 C 402.43 361.872 398.388 358.291 397.399 353.118 C 396.413 347.939 398.842 343.119 402.839 342.359 C 406.832 341.59 410.871 345.177 411.86 350.352 Z" stroke-linecap="round" /></g><g transform="matrix(1 0 0 1 224.61 92.74)" clip-path="url(#CLIPPATH_542)"  ><clipPath id="CLIPPATH_542" ><rect transform="matrix(1 0 0 1 -37.26 -5.24)" id="clip0_1532_847" x="-68.1555" y="-67.5" rx="67.5" ry="67.5" width="136.311" height="135" /></clipPath><path style="stroke: none; stroke-width: 1; stroke-dasharray: none; stroke-linecap: butt; stroke-dashoffset: 0; stroke-linejoin: miter; stroke-miterlimit: 4; fill: rgb(254,226,202); fill-rule: nonzero; opacity: 1;"  transform=" translate(-480.11, -351.74)" d="M 469.823 349.768 C 468.411 357.131 471.871 363.99 477.558 365.072 C 483.238 366.168 488.982 361.072 490.392 353.695 C 491.795 346.338 488.33 339.479 482.654 338.397 C 476.971 337.315 471.23 342.404 469.823 349.768 Z" stroke-linecap="round" /></g><g transform="matrix(1 0 0 1 224.61 92.73)" clip-path="url(#CLIPPATH_543)"  ><clipPath id="CLIPPATH_543" ><rect transform="matrix(1 0 0 1 -37.26 -5.23)" id="clip0_1532_847" x="-68.1555" y="-67.5" rx="67.5" ry="67.5" width="136.311" height="135" /></clipPath><path style="stroke: none; stroke-width: 1; stroke-dasharray: none; stroke-linecap: butt; stroke-dashoffset: 0; stroke-linejoin: miter; stroke-miterlimit: 4; fill: rgb(254,202,182); fill-rule: nonzero; opacity: 1;"  transform=" translate(-480.11, -351.73)" d="M 472.878 350.352 C 471.884 355.539 474.322 360.352 478.315 361.11 C 482.305 361.872 486.347 358.291 487.333 353.118 C 488.325 347.939 485.889 343.119 481.899 342.359 C 477.903 341.59 473.864 345.177 472.878 350.352 Z" stroke-linecap="round" /></g><g transform="matrix(1 0 0 1 186.87 86.36)" clip-path="url(#CLIPPATH_544)"  ><clipPath id="CLIPPATH_544" ><rect transform="matrix(1 0 0 1 0.47 1.14)" id="clip0_1532_847" x="-68.1555" y="-67.5" rx="67.5" ry="67.5" width="136.311" height="135" /></clipPath><path style="stroke: none; stroke-width: 1; stroke-dasharray: none; stroke-linecap: butt; stroke-dashoffset: 0; stroke-linejoin: miter; stroke-miterlimit: 4; fill: rgb(254,226,202); fill-rule: nonzero; opacity: 1;"  transform=" translate(-442.37, -345.36)" d="M 480.757 345.356 C 480.757 370.29 463.571 390.513 442.366 390.513 C 421.17 390.513 403.98 370.29 403.98 345.356 C 403.98 320.418 421.17 300.204 442.366 300.204 C 463.571 300.204 480.757 320.418 480.757 345.356 Z" stroke-linecap="round" /></g><g transform="matrix(1 0 0 1 172.15 89.85)" clip-path="url(#CLIPPATH_545)"  ><clipPath id="CLIPPATH_545" ><rect transform="matrix(1 0 0 1 15.2 -2.35)" id="clip0_1532_847" x="-68.1555" y="-67.5" rx="67.5" ry="67.5" width="136.311" height="135" /></clipPath><path style="stroke: none; stroke-width: 1; stroke-dasharray: none; stroke-linecap: butt; stroke-dashoffset: 0; stroke-linejoin: miter; stroke-miterlimit: 4; fill: rgb(117,70,54); fill-rule: nonzero; opacity: 1;"  transform=" translate(-427.65, -348.85)" d="M 431.358 348.851 C 431.358 350.895 429.685 352.554 427.644 352.554 C 425.596 352.554 423.938 350.895 423.938 348.851 C 423.938 346.797 425.596 345.139 427.644 345.139 C 429.685 345.139 431.358 346.797 431.358 348.851 Z" stroke-linecap="round" /></g><g transform="matrix(1 0 0 1 201.59 89.85)" clip-path="url(#CLIPPATH_546)"  ><clipPath id="CLIPPATH_546" ><rect transform="matrix(1 0 0 1 -14.24 -2.35)" id="clip0_1532_847" x="-68.1555" y="-67.5" rx="67.5" ry="67.5" width="136.311" height="135" /></clipPath><path style="stroke: none; stroke-width: 1; stroke-dasharray: none; stroke-linecap: butt; stroke-dashoffset: 0; stroke-linejoin: miter; stroke-miterlimit: 4; fill: rgb(117,70,54); fill-rule: nonzero; opacity: 1;"  transform=" translate(-457.09, -348.85)" d="M 460.796 348.851 C 460.796 350.895 459.137 352.554 457.092 352.554 C 455.041 352.554 453.379 350.895 453.379 348.851 C 453.379 346.797 455.041 345.139 457.092 345.139 C 459.137 345.139 460.796 346.797 460.796 348.851 Z" stroke-linecap="round" /></g><g transform="matrix(1 0 0 1 186.87 96.58)" clip-path="url(#CLIPPATH_547)"  ><clipPath id="CLIPPATH_547" ><rect transform="matrix(1 0 0 1 0.48 -9.08)" id="clip0_1532_847" x="-68.1555" y="-67.5" rx="67.5" ry="67.5" width="136.311" height="135" /></clipPath><path style="stroke: none; stroke-width: 1; stroke-dasharray: none; stroke-linecap: butt; stroke-dashoffset: 0; stroke-linejoin: miter; stroke-miterlimit: 4; fill: rgb(254,171,154); fill-rule: nonzero; opacity: 1;"  transform=" translate(-442.37, -355.58)" d="M 442.366 348.103 C 441.153 348.103 436.401 360.732 438.205 362.043 C 439.454 362.947 441.334 363.071 442.366 363.053 C 443.398 363.071 445.279 362.947 446.528 362.043 C 448.332 360.732 443.591 348.103 442.366 348.103 Z" stroke-linecap="round" /></g><g transform="matrix(1 0 0 1 184.49 60.07)" clip-path="url(#CLIPPATH_548)"  ><clipPath id="CLIPPATH_548" ><rect transform="matrix(1 0 0 1 2.86 27.43)" id="clip0_1532_847" x="-68.1555" y="-67.5" rx="67.5" ry="67.5" width="136.311" height="135" /></clipPath><path style="stroke: none; stroke-width: 1; stroke-dasharray: none; stroke-linecap: butt; stroke-dashoffset: 0; stroke-linejoin: miter; stroke-miterlimit: 4; fill: rgb(149,72,0); fill-rule: nonzero; opacity: 1;"  transform=" translate(-439.99, -319.07)" d="M 480.071 323.107 C 478.492 312.23 473.393 306.222 468.816 301.56 C 464.243 296.892 449.081 292.846 434.302 292.813 C 433.749 292.811 433.213 292.836 432.682 292.865 C 429.538 291.827 397.777 299.057 397.777 308.707 C 397.777 313.551 400.556 317.936 405.037 321.103 C 404.872 321.865 404.747 322.546 404.665 323.107 C 403.088 333.998 400.794 345.833 404.665 345.355 C 408.532 344.875 407.447 341.046 410.627 336.154 C 413.806 331.27 415.225 326.185 415.225 326.185 C 415.225 326.185 434.506 329.113 448.05 330.707 C 461.597 332.301 468.816 329.54 468.816 329.54 C 468.816 329.54 476.203 344.875 480.071 345.355 C 483.941 345.833 481.64 333.998 480.071 323.107 Z" stroke-linecap="round" /></g><g transform="matrix(1 0 0 1 186.87 114.14)" clip-path="url(#CLIPPATH_549)"  ><clipPath id="CLIPPATH_549" ><rect transform="matrix(1 0 0 1 0.47 -26.64)" id="clip0_1532_847" x="-68.1555" y="-67.5" rx="67.5" ry="67.5" width="136.311" height="135" /></clipPath><path style="stroke: none; stroke-width: 1; stroke-dasharray: none; stroke-linecap: butt; stroke-dashoffset: 0; stroke-linejoin: miter; stroke-miterlimit: 4; fill: rgb(254,91,124); fill-rule: nonzero; opacity: 1;"  transform=" translate(-442.37, -373.14)" d="M 432.803 366.234 C 432.639 367.055 432.539 367.904 432.539 368.785 C 432.539 375.008 436.943 380.054 442.369 380.054 C 447.801 380.054 452.199 375.008 452.199 368.785 C 452.199 367.904 452.105 367.055 451.937 366.234 L 432.803 366.234 Z" stroke-linecap="round" /></g><g transform="matrix(1 0 0 1 -33.21 -63.45)"  ><path style="stroke: none; stroke-width: 1; stroke-dasharray: none; stroke-linecap: butt; stroke-dashoffset: 0; stroke-linejoin: miter; stroke-miterlimit: 4; fill: rgb(247,147,183); fill-rule: nonzero; opacity: 1;"  transform=" translate(-222.29, -195.55)" d="M 308.151 143 L 160.712 143 C 153.843 143 148.279 148.567 148.279 155.433 L 148.279 161.376 C 142.401 163.039 133.149 164.863 124 163.428 C 124.787 169.472 136.536 179.939 148.279 182.219 L 148.279 235.668 C 148.279 242.533 153.843 248.103 160.712 248.103 L 308.151 248.103 C 315.02 248.103 320.588 242.533 320.588 235.668 L 320.588 155.433 C 320.588 148.567 315.02 143 308.151 143 Z" stroke-linecap="round" /></g><g transform="matrix(1 0 0 1 -20.4 -93.87)"  ><path style="stroke: none; stroke-width: 1; stroke-dasharray: none; stroke-linecap: butt; stroke-dashoffset: 0; stroke-linejoin: miter; stroke-miterlimit: 4; fill: rgb(222,225,230); fill-rule: nonzero; opacity: 1;"  transform=" translate(-235.1, -165.13)" d="M 302.658 167.056 L 167.543 167.056 L 167.543 163.213 L 302.658 163.213 L 302.658 167.056 Z" stroke-linecap="round" /></g><g transform="matrix(1 0 0 1 -20.4 -73.59)"  ><path style="stroke: none; stroke-width: 1; stroke-dasharray: none; stroke-linecap: butt; stroke-dashoffset: 0; stroke-linejoin: miter; stroke-miterlimit: 4; fill: rgb(222,225,230); fill-rule: nonzero; opacity: 1;"  transform=" translate(-235.1, -185.41)" d="M 302.658 187.333 L 167.543 187.333 L 167.543 183.491 L 302.658 183.491 L 302.658 187.333 Z" stroke-linecap="round" /></g><g transform="matrix(1 0 0 1 -20.4 -53.31)"  ><path style="stroke: none; stroke-width: 1; stroke-dasharray: none; stroke-linecap: butt; stroke-dashoffset: 0; stroke-linejoin: miter; stroke-miterlimit: 4; fill: rgb(222,225,230); fill-rule: nonzero; opacity: 1;"  transform=" translate(-235.1, -205.69)" d="M 302.658 207.612 L 167.543 207.612 L 167.543 203.769 L 302.658 203.769 L 302.658 207.612 Z" stroke-linecap="round" /></g><g transform="matrix(1 0 0 1 -20.4 -33.03)"  ><path style="stroke: none; stroke-width: 1; stroke-dasharray: none; stroke-linecap: butt; stroke-dashoffset: 0; stroke-linejoin: miter; stroke-miterlimit: 4; fill: rgb(222,225,230); fill-rule: nonzero; opacity: 1;"  transform=" translate(-235.1, -225.97)" d="M 302.658 227.889 L 167.543 227.889 L 167.543 224.047 L 302.658 224.047 L 302.658 227.889 Z" stroke-linecap="round" /></g><g transform="matrix(1 0 0 1 -157.44 -179.05)"  ><path style="stroke: rgb(222,225,230); stroke-width: 4; stroke-dasharray: none; stroke-linecap: butt; stroke-dashoffset: 0; stroke-linejoin: miter; stroke-miterlimit: 10; fill: none; fill-rule: nonzero; opacity: 1;"  transform=" translate(-98.06, -79.95)" d="M 95.1445 82.6816 C 97.0565 80.8243 99.0005 79.0003 100.978 77.2136" stroke-linecap="round" /></g><g transform="matrix(1 0 0 1 35.38 -130.55)"  ><path style="stroke: none; stroke-width: 1; stroke-dasharray: none; stroke-linecap: butt; stroke-dashoffset: 0; stroke-linejoin: miter; stroke-miterlimit: 4; fill: rgb(222,225,230); fill-rule: evenodd; opacity: 1;"  transform=" translate(-290.88, -128.45)" d="M 470.141 238.355 C 470.118 235.716 470.049 233.087 469.935 230.471 L 465.938 230.646 C 466.051 233.216 466.119 235.797 466.141 238.39 L 470.141 238.355 Z M 468.694 214.782 C 468.092 209.532 467.307 204.338 466.344 199.205 L 462.413 199.942 C 463.358 204.982 464.129 210.083 464.72 215.238 L 468.694 214.782 Z M 462.894 183.849 C 461.554 178.747 460.038 173.717 458.351 168.766 L 454.565 170.056 C 456.221 174.917 457.71 179.856 459.025 184.865 L 462.894 183.849 Z M 452.745 154.054 C 450.695 149.204 448.478 144.442 446.101 139.776 L 442.536 141.591 C 444.871 146.173 447.048 150.849 449.06 155.611 L 452.745 154.054 Z M 438.458 126.009 C 435.745 121.505 432.876 117.106 429.858 112.819 L 426.587 115.121 C 429.55 119.331 432.368 123.651 435.032 128.074 L 438.458 126.009 Z M 420.347 100.271 C 417.028 96.1998 413.568 92.2489 409.974 88.4256 L 407.059 91.1654 C 410.589 94.9202 413.987 98.8002 417.247 102.798 L 420.347 100.271 Z M 398.791 77.3413 C 394.936 73.7812 390.954 70.356 386.854 67.0734 L 384.354 70.1961 C 388.381 73.4198 392.291 76.7835 396.077 80.2798 L 398.791 77.3413 Z M 117.496 61.188 C 115.514 62.6381 113.557 64.1204 111.625 65.634 L 114.092 68.7825 C 115.989 67.2961 117.911 65.8404 119.858 64.4164 L 117.496 61.188 Z M 374.222 57.6738 C 369.908 54.6951 365.483 51.8652 360.955 49.1915 L 358.922 52.6359 C 363.368 55.2613 367.713 58.0402 371.949 60.9653 L 374.222 57.6738 Z M 142.356 45.4181 C 138.036 47.7715 133.804 50.2643 129.664 52.8905 L 131.807 56.2681 C 135.872 53.6893 140.028 51.2415 144.27 48.9306 L 142.356 45.4181 Z M 347.121 41.6727 C 342.434 39.3374 337.652 37.1631 332.784 35.157 L 331.26 38.8553 C 336.04 40.825 340.735 42.9599 345.337 45.2529 L 347.121 41.6727 Z M 169.09 33.0865 C 164.49 34.8463 159.963 36.7548 155.517 38.8062 L 157.192 42.4383 C 161.558 40.4242 166.003 38.5503 170.519 36.8224 L 169.09 33.0865 Z M 318.022 29.683 C 313.056 28.0409 308.013 26.5696 302.898 25.2759 L 301.917 29.1537 C 306.939 30.4239 311.891 31.8685 316.766 33.4807 L 318.022 29.683 Z M 197.23 24.4286 C 192.43 25.5605 187.69 26.8483 183.015 28.2864 L 184.191 32.1096 C 188.781 30.6976 193.435 29.4332 198.148 28.3218 L 197.23 24.4286 Z M 287.512 21.9634 C 282.372 21.0472 277.17 20.3081 271.914 19.7526 L 271.494 23.7304 C 276.655 24.276 281.763 25.0017 286.81 25.9013 L 287.512 21.9634 Z M 226.27 19.5969 C 221.354 20.0823 216.486 20.7281 211.67 21.5291 L 212.326 25.4749 C 217.055 24.6884 221.836 24.0542 226.663 23.5775 L 226.27 19.5969 Z M 256.216 18.6511 C 253.599 18.5597 250.97 18.5135 248.331 18.5135 C 245.866 18.5135 243.41 18.5538 240.965 18.6335 L 241.095 22.6314 C 243.497 22.553 245.909 22.5135 248.331 22.5135 C 250.924 22.5135 253.506 22.5588 256.077 22.6487 L 256.216 18.6511 Z" stroke-linecap="round" /></g><g transform="matrix(1 0 0 1 212.4 -8.86)"  ><path style="stroke: rgb(222,225,230); stroke-width: 4; stroke-dasharray: none; stroke-linecap: butt; stroke-dashoffset: 0; stroke-linejoin: miter; stroke-miterlimit: 10; fill: none; fill-rule: nonzero; opacity: 1;"  transform=" translate(-467.9, -250.14)" d="M 468.079 246.147 C 468.009 248.823 467.891 251.488 467.727 254.14" stroke-linecap="round" /></g><g transform="matrix(1 0 0 1 212.35 0.4)"  ><path style="stroke: none; stroke-width: 1; stroke-dasharray: none; stroke-linecap: butt; stroke-dashoffset: 0; stroke-linejoin: miter; stroke-miterlimit: 4; fill: rgb(222,225,230); fill-rule: nonzero; opacity: 1;"  transform=" translate(-467.85, -259.4)" d="M 457.914 250.371 L 466.374 268.428 L 477.785 252.074 L 457.914 250.371 Z" stroke-linecap="round" /></g><g transform="matrix(1 0 0 1 -69.08 192.27)"  ><path style="stroke: rgb(222,225,230); stroke-width: 4; stroke-dasharray: none; stroke-linecap: butt; stroke-dashoffset: 0; stroke-linejoin: miter; stroke-miterlimit: 10; fill: none; fill-rule: nonzero; opacity: 1;"  transform=" translate(-186.42, -451.27)" d="M 190.258 452.4 C 187.681 451.695 185.121 450.945 182.582 450.15" stroke-linecap="round" /></g><g transform="matrix(1 0 0 1 -158.43 69.43)"  ><path style="stroke: none; stroke-width: 1; stroke-dasharray: none; stroke-linecap: butt; stroke-dashoffset: 0; stroke-linejoin: miter; stroke-miterlimit: 4; fill: rgb(222,225,230); fill-rule: evenodd; opacity: 1;"  transform=" translate(-97.07, -328.43)" d="M 167.623 442.712 C 165.108 441.708 162.616 440.659 160.149 439.565 L 158.528 443.222 C 161.041 444.336 163.579 445.405 166.14 446.427 L 167.623 442.712 Z M 145.58 432.444 C 140.805 429.885 136.136 427.152 131.582 424.256 L 129.436 427.631 C 134.073 430.58 138.827 433.363 143.69 435.969 L 145.58 432.444 Z M 118.232 415.049 C 113.894 411.814 109.681 408.421 105.6 404.878 L 102.978 407.899 C 107.133 411.506 111.423 414.961 115.841 418.255 L 118.232 415.049 Z M 93.7561 393.8 C 89.9472 389.964 86.2801 385.987 82.7633 381.877 L 79.7242 384.478 C 83.3051 388.663 87.0391 392.712 90.9176 396.619 L 93.7561 393.8 Z M 72.6832 369.173 C 69.4858 364.822 66.4462 360.347 63.573 355.758 L 60.1826 357.88 C 63.1086 362.554 66.2038 367.111 69.4598 371.542 L 72.6832 369.173 Z M 55.486 341.702 C 52.9727 336.931 50.6315 332.055 48.4703 327.083 L 44.8019 328.677 C 47.0029 333.741 49.3874 338.707 51.9469 343.566 L 55.486 341.702 Z M 42.5684 311.98 C 40.7983 306.896 39.2112 301.726 37.8153 296.478 L 33.9497 297.506 C 35.3715 302.851 36.9879 308.117 38.7908 313.295 L 42.5684 311.98 Z M 34.2372 280.662 C 33.2485 275.38 32.4504 270.031 31.8504 264.621 L 27.8748 265.062 C 28.4858 270.571 29.2985 276.018 30.3055 281.398 L 34.2372 280.662 Z M 30.6599 248.445 C 30.5614 245.754 30.5117 243.049 30.5117 240.334 C 30.5117 237.87 30.5526 235.415 30.6338 232.971 L 26.636 232.838 C 26.5534 235.327 26.5117 237.825 26.5117 240.334 C 26.5117 243.098 26.5623 245.851 26.6626 248.592 L 30.6599 248.445 Z M 31.614 218.279 C 31.8601 215.83 32.1469 213.392 32.4734 210.967 L 28.5092 210.433 C 28.1767 212.903 27.8847 215.385 27.634 217.88 L 31.614 218.279 Z" stroke-linecap="round" /></g><g transform="matrix(1 0 0 1 -222.98 -60.46)"  ><path style="stroke: rgb(222,225,230); stroke-width: 4; stroke-dasharray: none; stroke-linecap: butt; stroke-dashoffset: 0; stroke-linejoin: miter; stroke-miterlimit: 10; fill: none; fill-rule: nonzero; opacity: 1;"  transform=" translate(-32.52, -198.54)" d="M 31.7617 202.465 C 32.2189 199.831 32.7232 197.212 33.2732 194.611" stroke-linecap="round" /></g><g transform="matrix(1 0 0 1 -222.79 -68.77)"  ><path style="stroke: none; stroke-width: 1; stroke-dasharray: none; stroke-linecap: butt; stroke-dashoffset: 0; stroke-linejoin: miter; stroke-miterlimit: 4; fill: rgb(222,225,230); fill-rule: nonzero; opacity: 1;"  transform=" translate(-32.71, -190.23)" d="M 42.4155 199.787 L 36.7055 180.68 L 23.0117 195.176 L 42.4155 199.787 Z" stroke-linecap="round" /></g><g transform="matrix(1 0 0 1 -120.81 -244.32)"  ><path style="stroke: none; stroke-width: 1; stroke-dasharray: none; stroke-linecap: butt; stroke-dashoffset: 0; stroke-linejoin: miter; stroke-miterlimit: 4; fill: rgb(222,225,230); fill-rule: nonzero; opacity: 1;"  transform=" translate(-134.69, -14.68)" d="M 134.685 20.5666 C 131.436 20.5666 128.803 17.9317 128.803 14.6854 C 128.803 11.4358 131.436 8.801 134.685 8.801 C 137.933 8.801 140.566 11.4358 140.566 14.6854 C 140.566 17.9317 137.933 20.5666 134.685 20.5666 Z M 149.37 17.689 L 149.37 11.6797 L 144.863 11.9786 C 144.621 11.065 144.258 10.1983 143.794 9.39994 L 147.194 6.42487 L 142.944 2.177 L 139.969 5.57594 C 139.168 5.11034 138.305 4.74634 137.389 4.50514 L 137.689 -0.0000629425 L 131.68 -0.0000629425 L 131.98 4.50514 C 131.066 4.74634 130.2 5.11034 129.401 5.57594 L 126.427 2.177 L 122.177 6.42487 L 125.577 9.39994 C 125.112 10.1983 124.749 11.065 124.506 11.9786 L 120 11.6797 L 120 17.689 L 124.506 17.389 C 124.749 18.3035 125.112 19.1691 125.577 19.9677 L 122.177 22.9437 L 126.427 27.1931 L 129.401 23.7931 C 130.2 24.2573 131.066 24.6197 131.98 24.8625 L 131.68 29.3691 L 137.689 29.3691 L 137.389 24.8625 C 138.305 24.6197 139.168 24.2573 139.969 23.7931 L 142.944 27.1931 L 147.194 22.9437 L 143.794 19.9677 C 144.258 19.1691 144.621 18.3035 144.863 17.389 L 149.37 17.689 Z" stroke-linecap="round" /></g><g transform="matrix(1 0 0 1 170.33 223.87)"  ><path style="stroke: none; stroke-width: 1; stroke-dasharray: none; stroke-linecap: butt; stroke-dashoffset: 0; stroke-linejoin: miter; stroke-miterlimit: 4; fill: rgb(222,225,230); fill-rule: nonzero; opacity: 1;"  transform=" translate(-425.83, -482.87)" d="M 436.661 480.644 L 428.057 480.644 L 428.057 472.04 L 423.603 472.04 L 423.603 480.644 L 415 480.644 L 415 485.098 L 423.603 485.098 L 423.603 493.701 L 428.057 493.701 L 428.057 485.098 L 436.661 485.098 L 436.661 480.644 Z" stroke-linecap="round" /></g><g transform="matrix(1 0 0 1 -131.67 57.83)"  ><path style="stroke: none; stroke-width: 1; stroke-dasharray: none; stroke-linecap: butt; stroke-dashoffset: 0; stroke-linejoin: miter; stroke-miterlimit: 4; fill: rgb(222,225,230); fill-rule: nonzero; opacity: 1;"  transform=" translate(-123.83, -316.83)" d="M 134.661 314.604 L 126.057 314.604 L 126.057 306 L 121.603 306 L 121.603 314.604 L 113 314.604 L 113 319.057 L 121.603 319.057 L 121.603 327.661 L 126.057 327.661 L 126.057 319.057 L 134.661 319.057 L 134.661 314.604 Z" stroke-linecap="round" /></g><g transform="matrix(1 0 0 1 128.19 -183.58)"  ><path style="stroke: none; stroke-width: 1; stroke-dasharray: none; stroke-linecap: butt; stroke-dashoffset: 0; stroke-linejoin: miter; stroke-miterlimit: 4; fill: rgb(97,214,232); fill-rule: nonzero; opacity: 1;"  transform=" translate(-383.69, -75.42)" d="M 364.798 48.1265 L 402.578 48.1265 C 409.698 48.1265 415.472 53.8998 415.472 61.0225 L 415.472 78.2679 C 415.472 85.3892 409.698 91.1639 402.578 91.1639 L 399.634 91.1639 L 399.634 102.719 L 388.126 91.1639 L 364.798 91.1639 C 357.676 91.1639 351.902 85.3892 351.902 78.2679 L 351.902 61.0225 C 351.902 53.8998 357.676 48.1265 364.798 48.1265 Z" stroke-linecap="round" /></g><g transform="matrix(1 0 0 1 96.19 -201.8)"  ><path style="stroke: none; stroke-width: 1; stroke-dasharray: none; stroke-linecap: butt; stroke-dashoffset: 0; stroke-linejoin: miter; stroke-miterlimit: 4; fill: rgb(247,147,183); fill-rule: nonzero; opacity: 1;"  transform=" translate(-351.69, -57.2)" d="M 371.489 29 L 331.896 29 C 324.773 29 319 34.7746 319 41.896 L 319 60.9573 C 319 68.08 324.773 73.8533 331.896 73.8533 L 334.839 73.8533 L 334.839 85.408 L 346.345 73.8533 L 371.489 73.8533 C 378.613 73.8533 384.387 68.08 384.387 60.9573 L 384.387 41.896 C 384.387 34.7746 378.613 29 371.489 29 Z" stroke-linecap="round" /></g><g transform="matrix(1 0 0 1 80.03 -207.57)"  ><path style="stroke: none; stroke-width: 1; stroke-dasharray: none; stroke-linecap: butt; stroke-dashoffset: 0; stroke-linejoin: miter; stroke-miterlimit: 4; fill: rgb(222,225,230); fill-rule: nonzero; opacity: 1;"  transform=" translate(-335.53, -51.43)" d="M 340.753 51.4267 C 340.753 54.3094 338.415 56.6467 335.532 56.6467 C 332.65 56.6467 330.312 54.3094 330.312 51.4267 C 330.312 48.5441 332.65 46.2068 335.532 46.2068 C 338.415 46.2068 340.753 48.5441 340.753 51.4267 Z" stroke-linecap="round" /></g><g transform="matrix(1 0 0 1 96.19 -207.57)"  ><path style="stroke: none; stroke-width: 1; stroke-dasharray: none; stroke-linecap: butt; stroke-dashoffset: 0; stroke-linejoin: miter; stroke-miterlimit: 4; fill: rgb(222,225,230); fill-rule: nonzero; opacity: 1;"  transform=" translate(-351.69, -51.43)" d="M 356.913 51.4267 C 356.913 54.3094 354.575 56.6467 351.693 56.6467 C 348.81 56.6467 346.473 54.3094 346.473 51.4267 C 346.473 48.5441 348.81 46.2068 351.693 46.2068 C 354.575 46.2068 356.913 48.5441 356.913 51.4267 Z" stroke-linecap="round" /></g><g transform="matrix(1 0 0 1 112.35 -207.57)"  ><path style="stroke: none; stroke-width: 1; stroke-dasharray: none; stroke-linecap: butt; stroke-dashoffset: 0; stroke-linejoin: miter; stroke-miterlimit: 4; fill: rgb(222,225,230); fill-rule: nonzero; opacity: 1;"  transform=" translate(-367.85, -51.43)" d="M 373.068 51.4267 C 373.068 54.3094 370.73 56.6467 367.849 56.6467 C 364.965 56.6467 362.629 54.3094 362.629 51.4267 C 362.629 48.5441 364.965 46.2068 367.849 46.2068 C 370.73 46.2068 373.068 48.5441 373.068 51.4267 Z" stroke-linecap="round" /></g><g transform="matrix(1 0 0 1 -185.5 -155)" clip-path="url(#CLIPPATH_550)"  ><clipPath id="CLIPPATH_550" ><rect transform="matrix(1 0 0 1 0 0)" id="clip1_1532_847" x="-70" y="-70" rx="70" ry="70" width="140" height="140" /></clipPath><path style="stroke: none; stroke-width: 1; stroke-dasharray: none; stroke-linecap: butt; stroke-dashoffset: 0; stroke-linejoin: miter; stroke-miterlimit: 4; fill: rgb(252,217,230); fill-rule: nonzero; opacity: 1;"  transform=" translate(-70, -104)" d="M 140 103.999 C 140 142.66 108.659 174 70.0004 174 C 31.3409 174 0 142.66 0 103.999 C 0 65.3404 31.3409 33.9999 70.0004 33.9999 C 108.659 33.9999 140 65.3404 140 103.999 Z" stroke-linecap="round" /></g><g transform="matrix(1 0 0 1 -236.65 -171.01)" clip-path="url(#CLIPPATH_551)"  ><clipPath id="CLIPPATH_551" ><rect transform="matrix(1 0 0 1 51.15 16.01)" id="clip1_1532_847" x="-70" y="-70" rx="70" ry="70" width="140" height="140" /></clipPath><path style="stroke: none; stroke-width: 1; stroke-dasharray: none; stroke-linecap: butt; stroke-dashoffset: 0; stroke-linejoin: miter; stroke-miterlimit: 4; fill: rgb(249,170,199); fill-rule: nonzero; opacity: 1;"  transform=" translate(-18.85, -87.99)" d="M 20.3506 100.715 C 19.6103 100.715 18.9672 100.168 18.8666 99.4162 L 15.8731 76.9558 C 15.762 76.137 16.3384 75.3831 17.1586 75.2733 C 17.976 75.1635 18.7316 75.7394 18.8407 76.5599 L 21.8363 99.0202 C 21.9439 99.839 21.3698 100.593 20.5487 100.703 C 20.4819 100.71 20.4152 100.715 20.3506 100.715 Z" stroke-linecap="round" /></g><g transform="matrix(1 0 0 1 -134.63 -171.01)" clip-path="url(#CLIPPATH_552)"  ><clipPath id="CLIPPATH_552" ><rect transform="matrix(1 0 0 1 -50.87 16.01)" id="clip1_1532_847" x="-70" y="-70" rx="70" ry="70" width="140" height="140" /></clipPath><path style="stroke: none; stroke-width: 1; stroke-dasharray: none; stroke-linecap: butt; stroke-dashoffset: 0; stroke-linejoin: miter; stroke-miterlimit: 4; fill: rgb(249,170,199); fill-rule: nonzero; opacity: 1;"  transform=" translate(-120.87, -87.99)" d="M 119.378 100.715 C 120.118 100.715 120.76 100.168 120.861 99.4162 L 123.855 76.9558 C 123.967 76.137 123.389 75.3831 122.569 75.2733 C 121.752 75.1635 120.996 75.7394 120.888 76.5599 L 117.892 99.0202 C 117.784 99.839 118.36 100.593 119.18 100.703 C 119.247 100.71 119.313 100.715 119.378 100.715 Z" stroke-linecap="round" /></g><g transform="matrix(1 0 0 1 -185.5 -151.14)" clip-path="url(#CLIPPATH_553)"  ><clipPath id="CLIPPATH_553" ><rect transform="matrix(1 0 0 1 0 -3.86)" id="clip1_1532_847" x="-70" y="-70" rx="70" ry="70" width="140" height="140" /></clipPath><path style="stroke: none; stroke-width: 1; stroke-dasharray: none; stroke-linecap: butt; stroke-dashoffset: 0; stroke-linejoin: miter; stroke-miterlimit: 4; fill: rgb(249,170,199); fill-rule: nonzero; opacity: 1;"  transform=" translate(-70, -107.86)" d="M 118.433 107.855 C 118.433 127.489 102.517 143.405 82.8832 143.405 L 57.1232 143.405 C 37.4899 143.405 21.5742 127.489 21.5742 107.855 C 21.5742 88.2201 37.4899 72.306 57.1232 72.306 L 82.8832 72.306 C 102.517 72.306 118.433 88.2201 118.433 107.855 Z" stroke-linecap="round" /></g><g transform="matrix(1 0 0 1 -185.5 -153.09)" clip-path="url(#CLIPPATH_554)"  ><clipPath id="CLIPPATH_554" ><rect transform="matrix(1 0 0 1 0 -1.91)" id="clip1_1532_847" x="-70" y="-70" rx="70" ry="70" width="140" height="140" /></clipPath><path style="stroke: none; stroke-width: 1; stroke-dasharray: none; stroke-linecap: butt; stroke-dashoffset: 0; stroke-linejoin: miter; stroke-miterlimit: 4; fill: rgb(211,16,87); fill-rule: nonzero; opacity: 1;"  transform=" translate(-70, -105.91)" d="M 107.697 105.91 C 107.697 116.375 99.2145 124.862 88.7436 124.862 L 51.252 124.862 C 40.7788 124.862 32.2969 116.375 32.2969 105.91 C 32.2969 95.4446 40.7788 86.9585 51.252 86.9585 L 88.7436 86.9585 C 99.2145 86.9585 107.697 95.4446 107.697 105.91 Z" stroke-linecap="round" /></g><g transform="matrix(1 0 0 1 -166.08 -155.82)" clip-path="url(#CLIPPATH_555)"  ><clipPath id="CLIPPATH_555" ><rect transform="matrix(1 0 0 1 -19.42 0.82)" id="clip1_1532_847" x="-70" y="-70" rx="70" ry="70" width="140" height="140" /></clipPath><path style="stroke: none; stroke-width: 1; stroke-dasharray: none; stroke-linecap: butt; stroke-dashoffset: 0; stroke-linejoin: miter; stroke-miterlimit: 4; fill: rgb(222,225,230); fill-rule: nonzero; opacity: 1;"  transform=" translate(-89.42, -103.18)" d="M 94.0384 103.181 C 94.0384 105.734 91.9709 107.803 89.4175 107.803 C 86.8659 107.803 84.793 105.734 84.793 103.181 C 84.793 100.627 86.8659 98.5596 89.4175 98.5596 C 91.9709 98.5596 94.0384 100.627 94.0384 103.181 Z" stroke-linecap="round" /></g><g transform="matrix(1 0 0 1 -204.91 -155.82)" clip-path="url(#CLIPPATH_556)"  ><clipPath id="CLIPPATH_556" ><rect transform="matrix(1 0 0 1 19.41 0.82)" id="clip1_1532_847" x="-70" y="-70" rx="70" ry="70" width="140" height="140" /></clipPath><path style="stroke: none; stroke-width: 1; stroke-dasharray: none; stroke-linecap: butt; stroke-dashoffset: 0; stroke-linejoin: miter; stroke-miterlimit: 4; fill: rgb(222,225,230); fill-rule: nonzero; opacity: 1;"  transform=" translate(-50.59, -103.18)" d="M 55.2099 103.181 C 55.2099 105.734 53.1357 107.803 50.5841 107.803 C 48.0313 107.803 45.9648 105.734 45.9648 103.181 C 45.9648 100.627 48.0313 98.5596 50.5841 98.5596 C 53.1357 98.5596 55.2099 100.627 55.2099 103.181 Z" stroke-linecap="round" /></g><g transform="matrix(1 0 0 1 -185.5 -144.66)" clip-path="url(#CLIPPATH_557)"  ><clipPath id="CLIPPATH_557" ><rect transform="matrix(1 0 0 1 0 -10.34)" id="clip1_1532_847" x="-70" y="-70" rx="70" ry="70" width="140" height="140" /></clipPath><path style="stroke: none; stroke-width: 1; stroke-dasharray: none; stroke-linecap: butt; stroke-dashoffset: 0; stroke-linejoin: miter; stroke-miterlimit: 4; fill: rgb(222,225,230); fill-rule: nonzero; opacity: 1;"  transform=" translate(-70, -114.34)" d="M 61.5742 108.165 C 61.9068 115.077 65.5547 120.525 70.0041 120.525 C 74.4527 120.525 78.1028 115.077 78.4332 108.165 L 61.5742 108.165 Z" stroke-linecap="round" /></g><g transform="matrix(1 0 0 1 -185.5 -90.09)" clip-path="url(#CLIPPATH_558)"  ><clipPath id="CLIPPATH_558" ><rect transform="matrix(1 0 0 1 0 -64.91)" id="clip1_1532_847" x="-70" y="-70" rx="70" ry="70" width="140" height="140" /></clipPath><path style="stroke: none; stroke-width: 1; stroke-dasharray: none; stroke-linecap: butt; stroke-dashoffset: 0; stroke-linejoin: miter; stroke-miterlimit: 4; fill: rgb(249,170,199); fill-rule: nonzero; opacity: 1;"  transform=" translate(-70, -168.91)" d="M 107.697 172.206 C 107.697 160.917 98.5451 151.765 87.2555 151.765 L 52.7372 151.765 C 41.4478 151.765 32.2969 160.917 32.2969 172.206 L 32.2969 186.058 L 107.697 186.058 L 107.697 172.206 Z" stroke-linecap="round" /></g><g transform="matrix(1 0 0 1 -185.5 -111.42)" clip-path="url(#CLIPPATH_559)"  ><clipPath id="CLIPPATH_559" ><rect transform="matrix(1 0 0 1 0 -43.58)" id="clip1_1532_847" x="-70" y="-70" rx="70" ry="70" width="140" height="140" /></clipPath><path style="stroke: none; stroke-width: 1; stroke-dasharray: none; stroke-linecap: butt; stroke-dashoffset: 0; stroke-linejoin: miter; stroke-miterlimit: 4; fill: rgb(211,16,87); fill-rule: nonzero; opacity: 1;"  transform=" translate(-70, -147.58)" d="M 81.8884 150.01 L 58.1172 150.01 L 58.1172 145.159 L 81.8884 145.159 L 81.8884 150.01 Z" stroke-linecap="round" /></g><g transform="matrix(1 0 0 1 -235.91 -151.14)" clip-path="url(#CLIPPATH_560)"  ><clipPath id="CLIPPATH_560" ><rect transform="matrix(1 0 0 1 50.41 -3.86)" id="clip1_1532_847" x="-70" y="-70" rx="70" ry="70" width="140" height="140" /></clipPath><path style="stroke: none; stroke-width: 1; stroke-dasharray: none; stroke-linecap: butt; stroke-dashoffset: 0; stroke-linejoin: miter; stroke-miterlimit: 4; fill: rgb(211,16,87); fill-rule: nonzero; opacity: 1;"  transform=" translate(-19.59, -107.86)" d="M 13.043 107.854 C 13.043 116.878 18.7497 124.327 26.1442 125.477 L 26.1442 90.2336 C 18.7497 91.3834 13.043 98.8312 13.043 107.854 Z" stroke-linecap="round" /></g><g transform="matrix(1 0 0 1 -240.54 -186.31)" clip-path="url(#CLIPPATH_561)"  ><clipPath id="CLIPPATH_561" ><rect transform="matrix(1 0 0 1 55.04 31.31)" id="clip1_1532_847" x="-70" y="-70" rx="70" ry="70" width="140" height="140" /></clipPath><path style="stroke: none; stroke-width: 1; stroke-dasharray: none; stroke-linecap: butt; stroke-dashoffset: 0; stroke-linejoin: miter; stroke-miterlimit: 4; fill: rgb(211,16,87); fill-rule: nonzero; opacity: 1;"  transform=" translate(-14.96, -72.69)" d="M 12.5547 75.0969 C 12.5547 72.4446 14.7055 70.2925 17.359 70.2925 Z" stroke-linecap="round" /></g><g transform="matrix(1 0 0 1 -135.36 -151.14)" clip-path="url(#CLIPPATH_562)"  ><clipPath id="CLIPPATH_562" ><rect transform="matrix(1 0 0 1 -50.14 -3.86)" id="clip1_1532_847" x="-70" y="-70" rx="70" ry="70" width="140" height="140" /></clipPath><path style="stroke: none; stroke-width: 1; stroke-dasharray: none; stroke-linecap: butt; stroke-dashoffset: 0; stroke-linejoin: miter; stroke-miterlimit: 4; fill: rgb(211,16,87); fill-rule: nonzero; opacity: 1;"  transform=" translate(-120.14, -107.86)" d="M 126.688 107.854 C 126.688 116.878 120.982 124.327 113.586 125.477 L 113.586 90.2336 C 120.982 91.3834 126.688 98.8312 126.688 107.854 Z" stroke-linecap="round" /></g><g transform="matrix(1 0 0 1 -238.14 -183.9)" clip-path="url(#CLIPPATH_563)"  ><clipPath id="CLIPPATH_563" ><rect transform="matrix(1 0 0 1 52.64 28.9)" id="clip1_1532_847" x="-70" y="-70" rx="70" ry="70" width="140" height="140" /></clipPath><path style="stroke: none; stroke-width: 1; stroke-dasharray: none; stroke-linecap: butt; stroke-dashoffset: 0; stroke-linejoin: miter; stroke-miterlimit: 4; fill: rgb(211,16,87); fill-rule: nonzero; opacity: 1;"  transform=" translate(-17.36, -75.1)" d="M 17.359 70.2922 C 20.0124 70.2922 22.1632 72.4443 22.1632 75.0967 C 22.1632 77.7508 20.0124 79.9011 17.359 79.9011 C 14.7055 79.9011 12.5547 77.7508 12.5547 75.0967" stroke-linecap="round" /></g><g transform="matrix(1 0 0 1 -133.13 -183.9)" clip-path="url(#CLIPPATH_564)"  ><clipPath id="CLIPPATH_564" ><rect transform="matrix(1 0 0 1 -52.37 28.9)" id="clip1_1532_847" x="-70" y="-70" rx="70" ry="70" width="140" height="140" /></clipPath><path style="stroke: none; stroke-width: 1; stroke-dasharray: none; stroke-linecap: butt; stroke-dashoffset: 0; stroke-linejoin: miter; stroke-miterlimit: 4; fill: rgb(211,16,87); fill-rule: nonzero; opacity: 1;"  transform=" translate(-122.37, -75.1)" d="M 117.566 75.0967 C 117.566 77.7508 119.717 79.9011 122.371 79.9011 C 125.025 79.9011 127.175 77.7508 127.175 75.0967 C 127.175 72.4443 125.025 70.2922 122.371 70.2922 C 119.717 70.2922 117.566 72.4443 117.566 75.0967 Z" stroke-linecap="round" /></g><g transform="matrix(1 0 0 1 -221.64 -134.1)" clip-path="url(#CLIPPATH_565)"  ><clipPath id="CLIPPATH_565" ><rect transform="matrix(1 0 0 1 36.14 -20.9)" id="clip1_1532_847" x="-70" y="-70" rx="70" ry="70" width="140" height="140" /></clipPath><path style="stroke: none; stroke-width: 1; stroke-dasharray: none; stroke-linecap: butt; stroke-dashoffset: 0; stroke-linejoin: miter; stroke-miterlimit: 4; fill: rgb(249,170,199); fill-rule: nonzero; opacity: 1;"  transform=" translate(-33.86, -124.9)" d="M 38.7853 131.072 C 37.3058 131.072 35.4361 131.068 33.1621 131.057 C 25.1562 131.018 23.1683 120.941 23.0883 120.511 C 22.9364 119.699 23.4714 118.916 24.2831 118.763 C 25.0943 118.612 25.8788 119.145 26.0312 119.957 C 26.0559 120.079 27.6584 128.034 33.1776 128.061 C 39.9452 128.095 43.1047 128.061 43.1363 128.061 C 43.9727 128.061 44.6405 128.716 44.6511 129.542 C 44.6581 130.37 43.9952 131.046 43.1694 131.057 C 43.1482 131.057 41.734 131.072 38.7853 131.072 Z" stroke-linecap="round" /></g><g transform="matrix(1 0 0 1 -211.66 -129.43)" clip-path="url(#CLIPPATH_566)"  ><clipPath id="CLIPPATH_566" ><rect transform="matrix(1 0 0 1 26.16 -25.57)" id="clip1_1532_847" x="-70" y="-70" rx="70" ry="70" width="140" height="140" /></clipPath><path style="stroke: none; stroke-width: 1; stroke-dasharray: none; stroke-linecap: butt; stroke-dashoffset: 0; stroke-linejoin: miter; stroke-miterlimit: 4; fill: rgb(211,16,87); fill-rule: nonzero; opacity: 1;"  transform=" translate(-43.84, -129.57)" d="M 48.6398 129.574 C 48.6398 132.227 46.4889 134.379 43.8355 134.379 C 41.1821 134.379 39.0312 132.227 39.0312 129.574 C 39.0312 126.92 41.1821 124.77 43.8355 124.77 C 46.4889 124.77 48.6398 126.92 48.6398 129.574 Z" stroke-linecap="round" /></g><g transform="matrix(1 0 0 1 25.79 186.75)"  ><path style="stroke: none; stroke-width: 1; stroke-dasharray: none; stroke-linecap: butt; stroke-dashoffset: 0; stroke-linejoin: miter; stroke-miterlimit: 4; fill: rgb(97,214,232); fill-rule: nonzero; opacity: 1;"  transform=" translate(-281.29, -445.75)" d="M 195.436 374 L 342.875 374 C 349.743 374 355.309 379.569 355.309 386.432 L 355.309 392.375 C 361.185 394.036 370.437 395.861 379.588 394.427 C 378.8 400.469 367.052 410.94 355.309 413.217 L 355.309 505.057 C 355.309 511.925 349.743 517.495 342.875 517.495 L 195.436 517.495 C 188.568 517.495 183 511.925 183 505.057 L 183 386.432 C 183 379.569 188.568 374 195.436 374 Z" stroke-linecap="round" /></g><g transform="matrix(1 0 0 1 12.99 136.05)"  ><path style="stroke: none; stroke-width: 1; stroke-dasharray: none; stroke-linecap: butt; stroke-dashoffset: 0; stroke-linejoin: miter; stroke-miterlimit: 4; fill: rgb(222,225,230); fill-rule: nonzero; opacity: 1;"  transform=" translate(-268.49, -395.05)" d="M 200.93 396.972 L 336.044 396.972 L 336.044 393.132 L 200.93 393.132 L 200.93 396.972 Z" stroke-linecap="round" /></g><g transform="matrix(1 0 0 1 12.99 156.33)"  ><path style="stroke: none; stroke-width: 1; stroke-dasharray: none; stroke-linecap: butt; stroke-dashoffset: 0; stroke-linejoin: miter; stroke-miterlimit: 4; fill: rgb(222,225,230); fill-rule: nonzero; opacity: 1;"  transform=" translate(-268.49, -415.33)" d="M 200.93 417.248 L 336.044 417.248 L 336.044 413.408 L 200.93 413.408 L 200.93 417.248 Z" stroke-linecap="round" /></g><g transform="matrix(1 0 0 1 12.99 176.61)"  ><path style="stroke: none; stroke-width: 1; stroke-dasharray: none; stroke-linecap: butt; stroke-dashoffset: 0; stroke-linejoin: miter; stroke-miterlimit: 4; fill: rgb(222,225,230); fill-rule: nonzero; opacity: 1;"  transform=" translate(-268.49, -435.61)" d="M 200.93 437.53 L 336.044 437.53 L 336.044 433.688 L 200.93 433.688 L 200.93 437.53 Z" stroke-linecap="round" /></g><g transform="matrix(1 0 0 1 12.99 196.88)"  ><path style="stroke: none; stroke-width: 1; stroke-dasharray: none; stroke-linecap: butt; stroke-dashoffset: 0; stroke-linejoin: miter; stroke-miterlimit: 4; fill: rgb(222,225,230); fill-rule: nonzero; opacity: 1;"  transform=" translate(-268.49, -455.88)" d="M 200.93 457.805 L 336.044 457.805 L 336.044 453.965 L 200.93 453.965 L 200.93 457.805 Z" stroke-linecap="round" /></g><g transform="matrix(1 0 0 1 12.99 217.17)"  ><path style="stroke: none; stroke-width: 1; stroke-dasharray: none; stroke-linecap: butt; stroke-dashoffset: 0; stroke-linejoin: miter; stroke-miterlimit: 4; fill: rgb(222,225,230); fill-rule: nonzero; opacity: 1;"  transform=" translate(-268.49, -476.17)" d="M 200.93 478.087 L 336.044 478.087 L 336.044 474.244 L 200.93 474.244 L 200.93 478.087 Z" stroke-linecap="round" /></g><g transform="matrix(1 0 0 1 12.99 237.44)"  ><path style="stroke: none; stroke-width: 1; stroke-dasharray: none; stroke-linecap: butt; stroke-dashoffset: 0; stroke-linejoin: miter; stroke-miterlimit: 4; fill: rgb(222,225,230); fill-rule: nonzero; opacity: 1;"  transform=" translate(-268.49, -496.44)" d="M 200.93 498.362 L 336.044 498.362 L 336.044 494.521 L 200.93 494.521 L 200.93 498.362 Z" stroke-linecap="round" /></g></g></g></svg>